<svg viewBox="0 0 444 444" xmlns="http://www.w3.org/2000/svg" xml:space="preserve" style="fill-rule:evenodd;clip-rule:evenodd;stroke-linejoin:round;stroke-miterlimit:2"><style>@media (prefers-color-scheme:dark){:root{filter:invert(100%)}}</style><path d="M470.16 271.85c48.66 33.211 81.219 89.859 79 149.46-1.777 28.117-5.18 57.516-17.367 83.246a158.524 158.524 0 0 1-60.59 66.426c-51.289 31.359-116.7 36.305-171.36 10.098-60.414-28.977-95.852-92.77-97.055-159.09-1.156-63.84 37.367-128.62 93.996-158.96a159.196 159.196 0 0 1 53.742-16.922c-10.562-1.109-21.09-4.027-27.695-12.082h.004a47.174 47.174 0 0 1-9.211-38.281c6.145-34.5 39.965-43.992 71.195-41.297 26.781 2.305 61.121 12.477 63.5 44.57 1.074 14.41-2.379 30.781-13.551 40.699-6.66 5.883-15.91 7.398-25.082 7.926v-.004a159.867 159.867 0 0 1 60.473 24.215l.001-.004Zm71.137 149.47c2.328-61.906-35.492-124.78-91.254-152.11-63.477-31.125-144.47-18.387-191.94 34.551-24.91 27.766-44.891 62.734-47.109 100.66a194.439 194.439 0 0 0 28.012 112.96c38.109 61.199 119.31 87.199 187.31 65.57 35.438-11.273 69.832-33.816 89.734-65.91 17.938-28.949 23.117-62.227 25.246-95.723l.001.002Zm-109.85-189.15a43.691 43.691 0 0 0 8.059-38.105c-7.563-24.48-35.309-31.227-58.141-31.988-23.961-.805-54.531 4.164-59.566 32.383-2.219 12.555-1.481 30.496 11.062 37.871 10.594 6.223 22.465 6.563 34.445 6.617.129-2.039.257-4.07.371-6.121-18.777-.16-40.016-2.668-39.957-26.574.05-24.48 14.828-31.125 37.352-31.254 21.184-.105 62.691 1.07 69.777 27.512 6.484 24.113-20.66 28.062-38.445 30.129l-.008.004a45.5 45.5 0 0 1 .156 7.582c11.02-.375 26.973.973 34.895-8.055v-.001Zm-6.66-15.195c6.223-7.062 2.379-16.609-4.313-21.891-14.672-11.609-37.531-12.633-55.422-12.238-7.507.184-19.199-.914-24.746 5.57a27.286 27.286 0 0 0-3.972 23.773c2.906 9.25 10.695 11.93 19.199 12.637v-.004a17.582 17.582 0 0 1-3.766-4.839 4.97 4.97 0 0 1-.316-.809c-.028-.051-.051-.078-.082-.129-10.773-28.223 36.855-38.996 52.309-21.344a18.619 18.619 0 0 1 4.769 13.676 18.628 18.628 0 0 1-6.469 12.961c8.153-.769 18.145-2.105 22.801-7.363h.008Zm-32.613 4.211c9.598-3.895 11.98-15.953 1.883-20.922a19.425 19.425 0 0 0-2.723-1.109c.808 7.375-1.152 14.855.445 22.176l.395-.145Zm-4.442 23.68a35.759 35.759 0 0 0 .602-14.539 55.176 55.176 0 0 1-12.762 1.23c-.18 4.29-.523 8.579-.707 12.891 4.277-.011 8.562.149 12.852.434l.015-.016Zm-3.554-21.602c-1.781-8.508 1.109-17.262-1.074-25.66v.004a44.186 44.186 0 0 0-6.903.051c.262 8.734 1.305 17.418 1.57 26.152l-.003.003a51.258 51.258 0 0 0 6.394-.535l.016-.015Zm-14.281-.106c-.285-8.003-1.153-15.953-1.481-23.926-7.613 2.508-12.816 7.922-9.68 17.051v-.003a15.708 15.708 0 0 0 11.145 6.894l.016-.016Z" style="fill-rule:nonzero" transform="translate(-154.015 -154.017)"/><path d="M488.67 315.36c39.988 46.109 48.984 107.66 29.969 165.29-19.609 59.422-80.266 95.645-141.26 96.531-38.34-.469-77.887-12.996-105.84-40.168-29.098-28.297-45.746-70.348-47.645-110.66-2.746-58.828 34.039-124.1 89.367-148.27 58.715-25.668 133.15-11.402 175.41 37.27l-.001.007Zm22.414 163.2c9.152-30.285 13.73-66.352 4.969-97.215v.004a146.3 146.3 0 0 0-167.908-105.321c-69.438 12.184-123.32 84.996-116.04 155.02 3.898 37.547 18.477 77.613 47.703 102.93a150.139 150.139 0 0 0 97.582 35.359 148.014 148.014 0 0 0 67.137-16.344c30.207-15.98 56.438-41.035 66.559-74.434l-.002.001Z" style="fill-rule:nonzero" transform="translate(-154.015 -154.017)"/><path d="M510.06 379.1c7.926 28.062 5.918 58.609-.914 86.777-14.461 59.789-71.738 97.305-131.76 98.234-57.117-.738-107.39-31.02-128.36-85.129-12.031-30.969-18.02-68.629-6.484-100.74l-.004-.004a166.164 166.164 0 0 1 46.031-67.867c47.184-40.773 124.2-42.711 173.04-2.848v-.004a145.617 145.617 0 0 1 48.461 71.582l-.01-.001Zm-2.875 42.777c4.289-69.188-53.59-131.79-122.27-134.56-39.73-1.594-74.773 9.231-101.75 39.414-21.996 24.637-38.996 55.234-38.684 89.051.371 37.297 12.949 79.664 41.035 105.71 25.16 23.309 57.855 34.34 91.852 34.777 37.367-.574 74.98-16.004 99.957-44.398 22.168-25.25 27.816-57.402 29.855-90l.005.006Z" style="fill-rule:nonzero" transform="translate(-154.015 -154.017)"/><path d="M484.54 423.82c6.617-.238 11.719 2.43 11.352 4.785-.371 2.485-5.23 3.817-10.957 4.028-5.465.285-10.984-.68-11.27-3.165-.266-2.355 4.051-5.253 10.875-5.648Zm.21-11.35c6.879.207 12.449 2.379 12.449 4.809 0 2.429-5.551 4.238-12.398 4.027-6.852-.027-12.426-2.039-12.449-4.473-.023-2.429 5.547-4.386 12.398-4.363Zm1.93-38.26c1.152 2.172-2.848 6.461-8.945 9.621-6.196 3.035-12.137 3.699-13.262 1.547s2.961-6.332 9.101-9.312c6.094-3.161 11.938-4 13.105-1.856h.001Zm-10.38 91.43c5.859 3.582 9.652 8.211 8.449 10.328-1.203 2.121-6.933.945-12.766-2.641-5.961-3.425-9.808-7.925-8.629-10.043 1.184-2.113 6.996-1.082 12.945 2.356h.001Zm3.34-102c1.336 1.961-1.152 6.539-7.008 10.07-5.754 3.293-11.508 3.266-12.266 1.047-.836-2.383 2.848-5.836 7.817-8.688 4.714-2.796 10.074-4.503 11.457-2.429Zm-9.12 111.76c5.859 3.059 8.945 7.898 7.481 9.758-1.543 1.988-6.434.738-11.508-1.91-4.918-2.457-9.25-6.043-8.239-8.317.938-2.199 6.117-2.566 12.266.469Z" style="fill-rule:nonzero" transform="translate(-154.015 -154.017)"/><path d="M464.35 340.48c.863.707-2.769 6.93-10.957 14.988h-.004a131.453 131.453 0 0 1-10.824 9.543c-.391.992-.891 2.172-1.414 3.531-.523 1.176-1.02 2.512-1.57 4.004.679 1.176 1.386 2.328 2.089 3.531l.004-.004a33.596 33.596 0 0 1 2.247 4.11 86.182 86.182 0 0 1 4.07 8.758c.629 1.543 1.285 3.007 1.851 4.656.524 1.57 1.075 3.136 1.594 4.734a102.031 102.031 0 0 1 4.422 20.688 58.097 58.097 0 0 1-1.648 22.594 52.036 52.036 0 0 1-1.961 5.469 71.714 71.714 0 0 1-2.25 5.359c-1.516 3.664-3.395 7.141-5.227 10.695-.969 1.754-2.066 3.477-3.09 5.207l-1.593 2.618-1.782 2.507c-1.226 1.649-2.324 3.399-3.66 4.996-1.336 1.594-2.695 3.168-4.07 4.762a48.097 48.097 0 0 1-4.465 4.508 39.05 39.05 0 0 1-4.812 4.234c-1.727 1.282-3.453 2.563-5.18 3.871l-.18.106-.082.078-.258.129-.339.184-.708.336-1.414.707v.003c-.949.536-1.945.973-2.98 1.309a104.796 104.796 0 0 1-25.902 5.754c-8.731.863-17.535.617-26.203-.738a64.88 64.88 0 0 1-23.723-9.809 87.7 87.7 0 0 1-31.254-36.262 64.835 64.835 0 0 1-5.832-21.828c-.078-.941-.156-1.852-.156-2.797l-.028-2.668.004-5.215c-.031-3.453-.031-6.851.156-10.254h-.003c.121-6.554.707-13.09 1.753-19.562.286-1.543.575-3.089.887-4.632.317-1.543.891-2.981 1.305-4.469l.707-2.172c.262-.738.629-1.414.918-2.094.68-1.359 1.203-2.769 1.988-4.027.785-1.254 1.594-2.461 2.352-3.664.738-1.075 1.543-2.012 2.301-2.981-.317-1.91-.653-3.453-.786-4.578-4.238-4.211-6.382-7.168-5.804-7.898.679-.864 4.578 1.109 10.617 4.761l.008.004a24.047 24.047 0 0 1 4.863-1.648c.785-.707 1.594-1.414 2.379-2.094a53.082 53.082 0 0 1 5.648-4.363 78.743 78.743 0 0 1 20.871-10.621c1.543-.496 2.961-1.047 4.34-1.414s2.695-.602 3.898-.891c1.207-.289 2.325-.496 3.328-.738 1.02-.106 1.961-.211 2.801-.317h.004a21.279 21.279 0 0 1 5.152-.312c-1.617.578-3.293.98-4.996 1.203-.808.133-1.722.316-2.746.5l-3.246.941c-1.176.34-2.43.68-3.765 1.075-1.336.39-2.719 1.015-4.184 1.543v-.004a79.64 79.64 0 0 0-20.004 11.035c-1.438 1.109-2.961 2.218-4.395 3.476a79.654 79.654 0 0 1 2.696-.289l-.004.004a32.845 32.845 0 0 1 10.227.629 10.418 10.418 0 0 1 7.168 4.863l.051.078c0 .028.261.579.261.579.028.078.051.207.051.207l.106.289.16.523.105.317.106.578-.004-.004a8.462 8.462 0 0 1-.129 4.234 9.685 9.685 0 0 1-3.719 5.082 15.394 15.394 0 0 1-2.668 1.481 351.462 351.462 0 0 1 7.09 5.097h-.004a150.215 150.215 0 0 1 25.973 23.934 26.826 26.826 0 0 1 2.613 3.399 15.433 15.433 0 0 1 3.403-1.043 44.414 44.414 0 0 1 3.699-5.598c.863-1.176 1.777-2.383 2.746-3.664.992-1.203 2.117-2.406 3.242-3.66 2.219-2.617 4.918-5 7.664-7.668l-.004.004a214.271 214.271 0 0 1 19.289-15.047c1.754-1.231 3.477-2.407 5.18-3.586a19.88 19.88 0 0 1-1.074-.129l-6.801-1.047 4.184-5.18h.003a12.168 12.168 0 0 1 7.536-4.293 24.007 24.007 0 0 1 1.781-.156h-.004c.219.012.437.039.656.078.391-.258.785-.469 1.172-.738a63.239 63.239 0 0 0-17.758-11.77 83.687 83.687 0 0 0-21.996-6.199 115.18 115.18 0 0 0-10.121-.887h-.004a20.915 20.915 0 0 1-7.711-.524c.239 0 3.215-.496 3.844-.496 1.281.028 2.563-.129 3.844-.16a75.925 75.925 0 0 1 10.359.371 80.899 80.899 0 0 1 22.754 5.621 64.676 64.676 0 0 1 19.406 12.445 74.722 74.722 0 0 1 16.215-7.875 21.57 21.57 0 0 1 5.781-1.074c7.949-5.894 12.605-9.976 13.574-9.179Zm-13.992 99.895a54.921 54.921 0 0 0 1.645-21 99.39 99.39 0 0 0-4.024-19.902c-.523-1.594-1.019-3.191-1.515-4.762-.497-1.437-1.176-2.98-1.727-4.441l-.004.004a91.386 91.386 0 0 0-3.82-8.512 41.12 41.12 0 0 0-2.114-4.004 51.38 51.38 0 0 1-.738-1.304h-.004a76.668 76.668 0 0 1-4.004 8.507l-1.41 2.539-2.879-.523.004.004a10.654 10.654 0 0 1-4.441-1.52 6.486 6.486 0 0 1-1.305-1.07 6.069 6.069 0 0 1-1.113-1.57 5.35 5.35 0 0 1-.629-1.852c-.078-.289-.106-.601-.156-.918-1.153.813-2.329 1.625-3.504 2.461-6.961 4.84-13.418 9.547-19.094 13.992-2.719 2.328-5.465 4.418-7.739 6.66-1.175 1.075-2.328 2.094-3.425 3.114l-2.961 3.035a67.757 67.757 0 0 0-1.911 1.992v-.004a10.128 10.128 0 0 1 6.879 7.953 5.7 5.7 0 0 1 .078.738c0 .106.055.211.055.317a12.182 12.182 0 0 1-2.976 9.07 12.19 12.19 0 0 1-8.61 4.137c-5.988.445-13.102-3.375-13.391-9.965a11.166 11.166 0 0 1 3.399-8.555 33.026 33.026 0 0 0-2.512-2.089c-6.563-5.727-16.004-13.129-26.754-21.211-2.121-1.543-4.16-3.086-6.172-4.602h.004a8.116 8.116 0 0 1-3.563 6.043 9.175 9.175 0 0 1-7.941.988 13.45 13.45 0 0 1-6.016-3.789l-1.109-1.254-.055-.027-.316-.445-.024-.079-.105-.132-.156-.258-.317-.551a16.198 16.198 0 0 1-1.277-2.379c-.422-.965-.84-1.988-1.109-2.879-.211-.836-.422-1.672-.629-2.484a49.083 49.083 0 0 1-.739-4.442c-.128.184-.289.391-.418.579-.707 1.152-1.414 2.3-2.144 3.476-5.258 9.676-6.332 22.281-6.617 35.488-.16 3.297-.106 6.696-.051 10.148l.078 5.258.027 2.641c0 .785.106 1.672.18 2.507l-.004.004a60.441 60.441 0 0 0 5.629 20.43 84.034 84.034 0 0 0 29.898 34.34 70.208 70.208 0 0 0 10.566 5.621 45.36 45.36 0 0 0 5.699 2.071l2.903.863 3.007.551c.997.179 1.993.39 3.008.523l3.086.258v-.004c2.067.227 4.145.332 6.227.317 2.117-.024 4.16.132 6.289-.051l6.512-.391c2.066-.316 4.164-.598 6.226-.887v-.004a61.345 61.345 0 0 0 6.25-1.074c2.043-.496 4.07-.992 6.094-1.48 1.992-.547 3.797-1.281 5.707-1.91h-.004c.98-.301 1.926-.704 2.824-1.2l1.414-.707.707-.339.313-.18h.027l.16-.106a512.205 512.205 0 0 1 4.868-3.636h-.008a37.03 37.03 0 0 0 4.578-3.977 47.04 47.04 0 0 0 4.234-4.238 467.75 467.75 0 0 0 3.922-4.524c1.305-1.519 2.328-3.187 3.504-4.757l1.727-2.407 1.543-2.484c.992-1.699 2.066-3.328 3.007-5.02 1.801-3.425 3.633-6.828 5.098-10.277a69.698 69.698 0 0 0 2.25-5.23l.004-.008a50.83 50.83 0 0 0 1.914-5.187l-.01-.028Zm-71.191-14.855c11.84-3.453-6.59-10.957-5.859-2.512.211 2.434 4.054 3.035 5.859 2.512Zm-45.508-51.004c1.805-1.57 5.57-4.996 1.227-6.254l.004.004a1.955 1.955 0 0 0-.418-.105c-4-.836-9.965 2.328-13.32.183a586.293 586.293 0 0 1 11.168 7.348c.425-.387.871-.754 1.339-1.176Zm-7.43 11.246v.004c.235-.602.27-1.262.11-1.887a15.443 15.443 0 0 0-1.024-3.008 343.584 343.584 0 0 1-7.797-6.222c.371.945.739 1.933 1.11 2.906.238.629.5 1.254.762 1.91.257.574.496.992.738 1.516l.004-.004c.328.676.715 1.324 1.152 1.937l.34.524.105.16.575.574v-.004a5.154 5.154 0 0 0 3.347 1.985c.16.035.371.035.578-.383v-.008ZM443.89 506.68c3.426 5.988 4.523 11.84 2.434 13.129-2.09 1.289-6.512-2.508-9.914-8.445-3.555-5.856-4.786-11.664-2.719-12.949 2.062-1.285 6.644 2.406 10.199 8.265Z" style="fill-rule:nonzero" transform="translate(-154.015 -154.017)"/><path d="M444.75 325.31c2.094 1.231.996 7.031-2.508 12.895-3.664 5.836-8.344 9.547-10.434 8.316-2.09-1.226-.867-6.929 2.797-12.711 3.481-5.91 8.031-9.71 10.145-8.5Zm-10.61 187.15c3.66 5.496 4.027 11.242 1.852 12.16-2.305.992-5.989-2.457-9.184-7.219-3.113-4.523-5.148-9.73-3.187-11.273 1.863-1.465 6.593.707 10.519 6.332Zm-.94-192.41c2.145.965 2.484 6.141-.625 12.238-3.141 5.832-8.031 8.879-9.891 7.375-1.933-1.57-.652-6.434 2.067-11.469 2.539-4.875 6.172-9.168 8.449-8.144Zm-43.51-1.73c.285 5.492-.707 11.012-3.168 11.273-2.352.258-5.254-4.027-5.648-10.883-.258-6.617 2.433-11.691 4.789-11.352 2.469.367 3.832 5.234 4.027 10.961v.001Zm0 209.23c.285 5.492-.707 11.012-3.168 11.27-2.352.262-5.254-4.027-5.648-10.879-.258-6.617 2.433-11.691 4.789-11.352 2.469.375 3.832 5.234 4.027 10.961Zm-15.37-221.48c2.461 0 4.262 5.566 4.07 12.395-.05 6.879-2.043 12.449-4.472 12.449-2.43 0-4.391-5.516-4.371-12.398.199-6.895 2.343-12.445 4.773-12.445v-.001Zm0 209.21c2.461 0 4.262 5.57 4.07 12.398-.05 6.879-2.043 12.449-4.472 12.449-2.43 0-4.391-5.519-4.371-12.398.199-6.875 2.343-12.449 4.773-12.449Zm-35.41-9.49c2.121 1.227.992 7.008-2.512 12.918-3.66 5.805-8.316 9.547-10.434 8.289-2.117-1.258-.836-6.93 2.797-12.711 3.504-5.91 8.055-9.703 10.148-8.496h.001Zm-4.44-177.43c3.426 5.965 4.5 11.84 2.434 13.129-2.067 1.293-6.516-2.539-9.914-8.473-3.555-5.859-4.786-11.664-2.719-12.949 2.062-1.285 6.64 2.434 10.199 8.293Zm-7.12 172.18c2.172.965 2.484 6.145-.625 12.266-3.137 5.805-8.027 8.84-9.859 7.348-1.961-1.571-.657-6.434 2.066-11.469 2.512-4.879 6.145-9.168 8.418-8.145Zm-2.64-166.42c3.664 5.516 4.027 11.242 1.852 12.156-2.301.996-5.989-2.43-9.18-7.215-3.113-4.523-5.152-9.73-3.188-11.246 1.868-1.465 6.594.684 10.516 6.305Zm-30.23 27.95c5.883 3.606 9.648 8.215 8.445 10.328-1.203 2.117-6.929.945-12.766-2.613-5.918-3.43-9.804-7.93-8.601-10.047 1.203-2.11 6.98-1.067 12.922 2.332Zm6.95 109.43c1.152 2.172-2.848 6.461-8.941 9.621-6.172 3.039-12.109 3.699-13.234 1.543-1.125-2.156 2.929-6.328 9.074-9.308 6.094-3.165 11.977-4 13.102-1.856h-.001Zm-12.75-99.67c5.856 3.059 8.969 7.922 7.477 9.781-1.543 1.961-6.407.738-11.508-1.91-4.891-2.461-9.207-6.043-8.239-8.348.961-2.164 6.141-2.558 12.27.477Zm5.72 89.1c1.332 1.961-1.109 6.539-7.031 10.07-5.727 3.297-11.469 3.266-12.266 1.043-.809-2.379 2.851-5.832 7.82-8.68 4.754-2.793 10.09-4.488 11.477-2.433Zm-19.09-37.11c6.617-.238 11.715 2.43 11.348 4.785-.371 2.485-5.227 3.817-10.957 4.028-5.469.285-10.988-.68-11.273-3.165-.262-2.355 4.055-5.253 10.883-5.648h-.001Zm.21-11.35c6.879.207 12.449 2.379 12.449 4.809 0 2.429-5.551 4.238-12.398 4.027-6.859-.02-12.41-2.02-12.449-4.469-.035-2.449 5.547-4.39 12.398-4.367Z" style="fill-rule:nonzero" transform="translate(-154.015 -154.017)"/></svg>